<svg data-v-423bf9ae="" xmlns="http://www.w3.org/2000/svg" viewBox="0 0 220.27209920288544 60" class="font"><!----><!----><!----><g data-v-423bf9ae="" id="6455acc8-7caf-46b9-acf0-77b46d649327" fill="black" transform="matrix(4.535147190093994,0,0,4.535147190093994,-5.079370021820068,-11.111111640930176)"><path d="M1.12 2.80L1.12 12.60L1.89 12.60L1.89 7.90L5.91 12.60L6.96 12.60L2.51 7.39L6.75 2.80L5.78 2.80L1.89 7.01L1.89 2.80ZM11.79 10.08C11.79 10.61 11.60 11.07 11.21 11.45C10.83 11.82 10.36 12.01 9.80 12.01C9.24 12.01 8.86 11.86 8.66 11.56C8.46 11.25 8.36 10.81 8.36 10.22L8.36 6.16L7.66 6.16L7.66 10.36C7.66 11.18 7.82 11.78 8.16 12.15C8.49 12.53 8.99 12.71 9.66 12.71C10.69 12.71 11.40 12.31 11.79 11.49L11.79 12.60L12.49 12.60L12.49 6.16L11.79 6.16ZM17.64 7.01L17.99 6.50C17.68 6.20 17.33 6.05 16.93 6.05C16.23 6.05 15.73 6.41 15.43 7.13L15.43 6.16L14.73 6.16L14.73 12.60L15.43 12.60L15.43 8.68C15.43 8.18 15.55 7.72 15.81 7.31C16.06 6.90 16.38 6.69 16.77 6.69C17.11 6.69 17.40 6.80 17.64 7.01ZM18.69 9.38C18.69 10.33 18.99 11.13 19.60 11.76C20.21 12.39 20.96 12.71 21.87 12.71C22.77 12.71 23.53 12.39 24.14 11.76C24.74 11.13 25.05 10.33 25.05 9.38C25.05 8.43 24.74 7.63 24.14 7.00C23.53 6.37 22.77 6.05 21.87 6.05C20.96 6.05 20.21 6.37 19.60 7.00C18.99 7.63 18.69 8.43 18.69 9.38ZM19.39 9.38C19.39 8.62 19.61 7.99 20.06 7.48C20.51 6.97 21.11 6.72 21.87 6.72C22.62 6.72 23.23 6.97 23.67 7.48C24.12 7.99 24.35 8.62 24.35 9.38C24.35 10.14 24.12 10.77 23.67 11.28C23.23 11.79 22.62 12.04 21.87 12.04C21.11 12.04 20.51 11.79 20.06 11.28C19.61 10.77 19.39 10.14 19.39 9.38ZM29.88 2.45L25.47 12.60L26.31 12.60L27.57 9.66L32.19 9.66L33.45 12.60L34.29 12.60ZM29.88 4.24L31.88 8.93L27.87 8.93ZM41.78 9.38C41.78 8.37 41.48 7.56 40.89 6.96C40.29 6.35 39.55 6.05 38.65 6.05C38.09 6.05 37.60 6.18 37.18 6.45C36.75 6.72 36.42 7.10 36.18 7.57L36.18 6.16L35.48 6.16L35.48 15.68L36.18 15.68L36.18 11.19C36.42 11.66 36.75 12.04 37.18 12.31C37.60 12.58 38.09 12.71 38.65 12.71C39.55 12.71 40.29 12.41 40.89 11.80C41.48 11.20 41.78 10.39 41.78 9.38ZM41.06 9.38C41.06 10.23 40.83 10.88 40.38 11.33C39.92 11.79 39.32 12.01 38.58 12.01C37.96 12.01 37.40 11.78 36.91 11.31C36.42 10.85 36.18 10.20 36.18 9.38C36.18 8.56 36.42 7.91 36.91 7.45C37.40 6.98 37.96 6.75 38.58 6.75C39.32 6.75 39.92 6.97 40.38 7.43C40.83 7.88 41.06 8.53 41.06 9.38ZM49.69 9.38C49.69 8.37 49.39 7.56 48.80 6.96C48.20 6.35 47.46 6.05 46.56 6.05C46.00 6.05 45.51 6.18 45.09 6.45C44.66 6.72 44.33 7.10 44.09 7.57L44.09 6.16L43.39 6.16L43.39 15.68L44.09 15.68L44.09 11.19C44.33 11.66 44.66 12.04 45.09 12.31C45.51 12.58 46.00 12.71 46.56 12.71C47.46 12.71 48.20 12.41 48.80 11.80C49.39 11.20 49.69 10.39 49.69 9.38ZM48.97 9.38C48.97 10.23 48.74 10.88 48.29 11.33C47.83 11.79 47.23 12.01 46.49 12.01C45.87 12.01 45.31 11.78 44.82 11.31C44.33 10.85 44.09 10.20 44.09 9.38C44.09 8.56 44.33 7.91 44.82 7.45C45.31 6.98 45.87 6.75 46.49 6.75C47.23 6.75 47.83 6.97 48.29 7.43C48.74 7.88 48.97 8.53 48.97 9.38Z"></path></g><!----><!----></svg>